<svg width="40" height="40" viewBox="0 0 40 40" fill="none" xmlns="http://www.w3.org/2000/svg">
<circle cx="20" cy="20" r="18.5" stroke="#9F00C7" stroke-width="3"/>
<g clip-path="url(#clip0)">
<path d="M17.8909 13.6646H26.5244C27.142 13.6646 27.6425 13.1642 27.6425 12.5467C27.6425 11.9291 27.1421 11.4286 26.5244 11.4286H17.8909C14.7914 11.4286 12.3631 13.8022 12.3631 16.8324V17.9503C12.3631 21.1355 14.8428 23.7268 17.8909 23.7268H26.5244C27.142 23.7268 27.6425 23.2262 27.6425 22.6085C27.6425 21.9911 27.1421 21.4905 26.5244 21.4905H17.8909C16.1066 21.4905 14.5991 19.869 14.5991 17.95V16.832C14.5991 15.0263 16.0145 13.6646 17.8909 13.6646Z" fill="#9F00C7"/>
<path d="M13.4783 28.5714H26.5215C27.1389 28.5714 27.6398 28.071 27.6398 27.4531C27.6398 26.8357 27.1394 26.335 26.5215 26.335H13.4783C12.8607 26.335 12.3602 26.8356 12.3602 27.4531C12.3604 28.0709 12.8609 28.5714 13.4783 28.5714Z" fill="#9F00C7"/>
</g>
<defs>
<clipPath id="clip0">
<rect width="17.1429" height="17.1429" fill="white" transform="translate(11.4286 11.4286)"/>
</clipPath>
</defs>
</svg>
